PathFileType	4	(X/Y/Z)	C:\Users\86182\Documents\cortex\Trimmed_M4_H11.trc
DataRate	CameraRate	NumFrames	NumMarkers	Units	OrigDataRate	OrigDataStartFrame	OrigNumFrames
100.00	100.00	       140	2	mm	100.00	541	       901
Frame#	Time	gripper			box			
		X1	Y1	Z1	X2	Y2	Z2	

541	5.400	276.17899	151.13185	292.20300	277.98816	147.87160	155.77170	
542	5.410	276.18039	151.13222	292.20251	277.99301	147.87376	155.76831	
543	5.420	276.18115	151.13239	292.20209	277.99609	147.87480	155.76616	
544	5.430	276.18124	151.13231	292.20209	277.99570	147.87526	155.76633	
545	5.440	276.18057	151.13187	292.20270	277.99130	147.87506	155.76917	
546	5.450	276.17923	151.13106	292.20419	277.98355	147.87393	155.77434	
547	5.460	276.17749	151.13000	292.20667	277.97330	147.87204	155.78122	
548	5.470	276.17566	151.12885	292.21014	277.96118	147.87016	155.78912	
549	5.480	276.17386	151.12767	292.21423	277.94833	147.86925	155.79715	
550	5.490	276.17209	151.12657	292.21799	277.93701	147.86945	155.80405	
551	5.500	276.17081	151.12581	292.22049	277.93036	147.87000	155.80814	
552	5.510	276.17044	151.12558	292.22107	277.93076	147.87003	155.80811	
553	5.520	276.17133	151.12602	292.21960	277.93863	147.86967	155.80350	
554	5.530	276.17340	151.12714	292.21671	277.95248	147.86961	155.79498	
555	5.540	276.17639	151.12881	292.21320	277.96997	147.87003	155.78391	
556	5.550	276.17984	151.13075	292.20993	277.98871	147.87053	155.77202	
557	5.560	276.18307	151.13260	292.20734	278.00604	147.87086	155.76117	
558	5.570	276.18552	151.13402	292.20563	278.01941	147.87108	155.75314	
559	5.580	276.18686	151.13481	292.20508	278.02701	147.87106	155.74918	
560	5.590	276.18710	151.13493	292.20575	278.02838	147.87064	155.74960	
561	5.600	276.18628	151.13437	292.20761	278.02420	147.86948	155.75418	
562	5.610	276.18448	151.13315	292.21039	278.01648	147.86702	155.76178	
563	5.620	276.18185	151.13139	292.21356	278.00790	147.86272	155.77077	
564	5.630	276.17874	151.12935	292.21643	278.00021	147.85701	155.77948	
565	5.640	276.17563	151.12740	292.21838	277.99387	147.85135	155.78674	
566	5.650	276.17303	151.12593	292.21906	277.98920	147.84723	155.79160	
567	5.660	276.17145	151.12518	292.21832	277.98688	147.84552	155.79330	
568	5.670	276.17114	151.12524	292.21625	277.98773	147.84637	155.79150	
569	5.680	276.17206	151.12613	292.21317	277.99200	147.84920	155.78641	
570	5.690	276.17404	151.12766	292.20956	277.99908	147.85304	155.77872	
571	5.700	276.17651	151.12950	292.20596	278.00742	147.85704	155.76979	
572	5.710	276.17899	151.13132	292.20294	278.01483	147.86057	155.76141	
573	5.720	276.18112	151.13281	292.20099	278.01892	147.86339	155.75543	
574	5.730	276.18265	151.13376	292.20044	278.01770	147.86536	155.75336	
575	5.740	276.18335	151.13400	292.20129	278.01068	147.86620	155.75577	
576	5.750	276.18311	151.13350	292.20355	277.99902	147.86554	155.76218	
577	5.760	276.18201	151.13231	292.20703	277.98526	147.86313	155.77118	
578	5.770	276.18033	151.13063	292.21130	277.97217	147.85934	155.78094	
579	5.780	276.17834	151.12875	292.21582	277.96191	147.85533	155.78966	
580	5.790	276.17639	151.12695	292.21988	277.95554	147.85248	155.79602	
581	5.800	276.17474	151.12558	292.22281	277.95322	147.85175	155.79916	
582	5.810	276.17371	151.12497	292.22412	277.95499	147.85345	155.79855	
583	5.820	276.17346	151.12535	292.22375	277.96063	147.85701	155.79442	
584	5.830	276.17395	151.12663	292.22217	277.96933	147.86116	155.78766	
585	5.840	276.17487	151.12846	292.22006	277.97986	147.86469	155.77954	
586	5.850	276.17593	151.13040	292.21802	277.99063	147.86702	155.77148	
587	5.860	276.17706	151.13206	292.21634	277.99994	147.86807	155.76480	
588	5.870	276.17828	151.13312	292.21530	278.00632	147.86801	155.76047	
589	5.880	276.17938	151.13341	292.21509	278.00885	147.86714	155.75894	
590	5.890	276.17990	151.13298	292.21576	278.00757	147.86560	155.76016	
591	5.900	276.17950	151.13202	292.21704	278.00308	147.86311	155.76382	
592	5.910	276.17819	151.13074	292.21848	277.99585	147.85954	155.76959	
593	5.920	276.17630	151.12932	292.21970	277.98633	147.85519	155.77698	
594	5.930	276.17432	151.12785	292.22052	277.97559	147.85092	155.78488	
595	5.940	276.17273	151.12650	292.22083	277.96561	147.84766	155.79178	
596	5.950	276.17191	151.12547	292.22067	277.95886	147.84605	155.79614	
597	5.960	276.17169	151.12492	292.21985	277.95715	147.84619	155.79718	
598	5.970	276.17181	151.12489	292.21808	277.96075	147.84763	155.79477	
599	5.980	276.17203	151.12534	292.21539	277.96848	147.84993	155.78943	
600	5.990	276.17249	151.12627	292.21210	277.97855	147.85297	155.78183	
601	6.000	276.17337	151.12764	292.20886	277.98920	147.85672	155.77310	
602	6.010	276.17477	151.12936	292.20615	277.99893	147.86089	155.76459	
603	6.020	276.17645	151.13113	292.20432	278.00635	147.86479	155.75760	
604	6.030	276.17798	151.13254	292.20361	278.01025	147.86778	155.75316	
605	6.040	276.17889	151.13318	292.20410	278.00986	147.86945	155.75183	
606	6.050	276.17911	151.13289	292.20578	278.00510	147.86971	155.75369	
607	6.060	276.17871	151.13185	292.20837	277.99658	147.86867	155.75836	
608	6.070	276.17801	151.13051	292.21155	277.98566	147.86659	155.76501	
609	6.080	276.17746	151.12927	292.21466	277.97467	147.86366	155.77243	
610	6.090	276.17737	151.12848	292.21729	277.96664	147.85989	155.77913	
611	6.100	276.17792	151.12820	292.21887	277.96390	147.85530	155.78372	
612	6.110	276.17889	151.12839	292.21927	277.96689	147.85043	155.78542	
613	6.120	276.17999	151.12883	292.21863	277.97458	147.84619	155.78394	
614	6.130	276.18082	151.12933	292.21722	277.98593	147.84335	155.77921	
615	6.140	276.18109	151.12981	292.21500	278.00006	147.84221	155.77151	
616	6.150	276.18091	151.13028	292.21194	278.01614	147.84261	155.76154	
617	6.160	276.18036	151.13077	292.20831	278.03256	147.84421	155.75056	
618	6.170	276.17953	151.13115	292.20471	278.04700	147.84651	155.74039	
619	6.180	276.17847	151.13129	292.20175	278.05707	147.84898	155.73279	
620	6.190	276.17746	151.13115	292.20010	278.06116	147.85120	155.72911	
621	6.200	276.17664	151.13071	292.20013	278.05875	147.85284	155.72983	
622	6.210	276.17581	151.12988	292.20178	278.05035	147.85384	155.73456	
623	6.220	276.17468	151.12868	292.20459	278.03696	147.85435	155.74237	
624	6.230	276.17343	151.12727	292.20782	278.02051	147.85468	155.75168	
625	6.240	276.17236	151.12605	292.21088	278.00394	147.85489	155.76056	
626	6.250	276.17172	151.12523	292.21304	277.99048	147.85504	155.76727	
627	6.260	276.17148	151.12489	292.21390	277.98279	147.85518	155.77060	
628	6.270	276.17160	151.12506	292.21335	277.98221	147.85538	155.77007	
629	6.280	276.17209	151.12566	292.21164	277.98831	147.85576	155.76605	
630	6.290	276.17285	151.12657	292.20914	277.99924	147.85648	155.75970	
631	6.300	276.17371	151.12759	292.20630	278.01285	147.85742	155.75211	
632	6.310	276.17456	151.12857	292.20367	278.02753	147.85844	155.74413	
633	6.320	276.17535	151.12936	292.20175	278.04153	147.85930	155.73662	
634	6.330	276.17606	151.12990	292.20093	278.05307	147.85976	155.73059	
635	6.340	276.17670	151.13010	292.20142	278.06119	147.85930	155.72672	
636	6.350	276.17737	151.13005	292.20316	278.06552	147.85756	155.72531	
637	6.360	276.17816	151.12993	292.20575	278.06549	147.85454	155.72665	
638	6.370	276.17896	151.12981	292.20847	278.06027	147.85065	155.73099	
639	6.380	276.17938	151.12968	292.21075	278.04996	147.84636	155.73822	
640	6.390	276.17911	151.12946	292.21216	278.03610	147.84215	155.74725	
641	6.400	276.17795	151.12907	292.21262	278.02148	147.83861	155.75626	
642	6.410	276.17593	151.12852	292.21231	278.00870	147.83636	155.76340	
643	6.420	276.17355	151.12793	292.21158	277.99954	147.83607	155.76749	
644	6.430	276.17151	151.12752	292.21069	277.99521	147.83820	155.76807	
645	6.440	276.17035	151.12753	292.20966	277.99634	147.84259	155.76523	
646	6.450	276.17026	151.12811	292.20847	278.00247	147.84825	155.75967	
647	6.460	276.17099	151.12918	292.20709	278.01212	147.85364	155.75262	
648	6.470	276.17218	151.13046	292.20572	278.02319	147.85735	155.74539	
649	6.480	276.17365	151.13165	292.20447	278.03415	147.85863	155.73900	
650	6.490	276.17517	151.13249	292.20355	278.04404	147.85745	155.73398	
651	6.500	276.17657	151.13274	292.20343	278.05209	147.85435	155.73070	
652	6.510	276.17752	151.13232	292.20422	278.05756	147.84996	155.72952	
653	6.520	276.17789	151.13138	292.20605	278.05997	147.84480	155.73062	
654	6.530	276.17776	151.13008	292.20874	278.05948	147.83928	155.73367	
655	6.540	276.17734	151.12874	292.21179	278.05667	147.83383	155.73816	
656	6.550	276.17691	151.12758	292.21466	278.05212	147.82899	155.74347	
657	6.560	276.17667	151.12674	292.21704	278.04678	147.82539	155.74884	
658	6.570	276.17676	151.12633	292.21869	278.04181	147.82356	155.75334	
659	6.580	276.17706	151.12630	292.21927	278.03833	147.82396	155.75603	
660	6.590	276.17728	151.12654	292.21857	278.03674	147.82684	155.75635	
661	6.600	276.17734	151.12700	292.21658	278.03662	147.83214	155.75443	
662	6.610	276.17722	151.12762	292.21353	278.03687	147.83929	155.75122	
663	6.620	276.17700	151.12839	292.20990	278.03641	147.84727	155.74789	
664	6.630	276.17673	151.12923	292.20630	278.03458	147.85481	155.74545	
665	6.640	276.17642	151.13005	292.20319	278.03098	147.86069	155.74463	
666	6.650	276.17590	151.13069	292.20126	278.02536	147.86403	155.74564	
667	6.660	276.17505	151.13098	292.20099	278.01764	147.86449	155.74860	
668	6.670	276.17386	151.13084	292.20255	278.00772	147.86218	155.75348	
669	6.680	276.17224	151.13016	292.20563	277.99603	147.85754	155.75996	
670	6.690	276.17026	151.12894	292.20947	277.98389	147.85132	155.76721	
671	6.700	276.16840	151.12735	292.21301	277.97327	147.84454	155.77393	
672	6.710	276.16708	151.12581	292.21518	277.96619	147.83846	155.77875	
673	6.720	276.16660	151.12474	292.21539	277.96420	147.83412	155.78061	
674	6.730	276.16678	151.12433	292.21381	277.96790	147.83211	155.77911	
675	6.740	276.16745	151.12447	292.21106	277.97668	147.83235	155.77454	
676	6.750	276.16827	151.12495	292.20795	277.98886	147.83429	155.76776	
677	6.760	276.16925	151.12563	292.20520	278.00204	147.83714	155.76013	
678	6.770	276.17038	151.12639	292.20319	278.01361	147.84010	155.75327	
679	6.780	276.17160	151.12718	292.20218	278.02161	147.84261	155.74854	
680	6.790	276.17264	151.12787	292.20203	278.02515	147.84436	155.74666	
